<svg width="400" height="400" viewBox="0 0 400 400" fill="none" opacity="0.5" xmlns="http://www.w3.org/2000/svg">
<g clip-path="url(#clip0)">
<rect width="400" height="400" fill="none"/>
<g clip-path="url(#clip1)">
<path d="M229.536 302.434C228.015 302.434 226.777 303.676 226.777 305.193C226.777 306.716 228.015 307.952 229.536 307.952C231.058 307.952 232.295 306.716 232.295 305.193C232.295 303.676 231.058 302.434 229.536 302.434ZM229.536 309.602C227.106 309.602 225.13 307.623 225.13 305.193C225.13 302.763 227.106 300.789 229.536 300.789C231.966 300.789 233.943 302.763 233.943 305.193C233.943 307.623 231.966 309.602 229.536 309.602Z" fill="white"/>
<path d="M262.374 217.378C262.163 217.378 261.953 217.298 261.792 217.139C261.47 216.815 261.47 216.295 261.792 215.972L264.675 213.09C264.997 212.767 265.518 212.767 265.84 213.09C266.162 213.409 266.162 213.934 265.84 214.253L262.956 217.139C262.796 217.298 262.585 217.378 262.374 217.378Z" fill="white"/>
<path d="M265.258 217.378C265.047 217.378 264.837 217.298 264.675 217.139L261.792 214.253C261.47 213.934 261.47 213.409 261.792 213.09C262.113 212.767 262.635 212.767 262.956 213.09L265.84 215.972C266.162 216.295 266.162 216.815 265.84 217.139C265.68 217.298 265.469 217.378 265.258 217.378Z" fill="white"/>
<path d="M213.102 283.465H209.024C208.569 283.465 208.2 283.099 208.2 282.642C208.2 282.186 208.569 281.82 209.024 281.82H213.102C213.557 281.82 213.926 282.186 213.926 282.642C213.926 283.099 213.557 283.465 213.102 283.465Z" fill="white"/>
<path d="M211.063 285.508C210.608 285.508 210.24 285.136 210.24 284.68V280.605C210.24 280.148 210.608 279.777 211.063 279.777C211.518 279.777 211.887 280.148 211.887 280.605V284.68C211.887 285.136 211.518 285.508 211.063 285.508Z" fill="white"/>
<path d="M221.868 215.112C221.868 215.574 221.493 215.951 221.031 215.951C220.569 215.951 220.194 215.574 220.194 215.112C220.194 214.65 220.569 214.274 221.031 214.274C221.493 214.274 221.868 214.65 221.868 215.112Z" fill="white"/>
<path d="M322.92 214.274C322.92 214.741 322.546 215.112 322.084 215.112C321.622 215.112 321.247 214.741 321.247 214.274C321.247 213.812 321.622 213.441 322.084 213.441C322.546 213.441 322.92 213.812 322.92 214.274Z" fill="white"/>
<path d="M354.677 221.67C354.677 222.132 354.302 222.509 353.84 222.509C353.378 222.509 353.003 222.132 353.003 221.67C353.003 221.209 353.378 220.832 353.84 220.832C354.302 220.832 354.677 221.209 354.677 221.67Z" fill="white"/>
<path d="M386.356 235.127C386.356 235.588 385.982 235.965 385.52 235.965C385.058 235.965 384.683 235.588 384.683 235.127C384.683 234.665 385.058 234.288 385.52 234.288C385.982 234.288 386.356 234.665 386.356 235.127Z" fill="white"/>
<path d="M393.902 222.737C393.902 223.199 393.528 223.57 393.066 223.57C392.604 223.57 392.229 223.199 392.229 222.737C392.229 222.27 392.604 221.898 393.066 221.898C393.528 221.898 393.902 222.27 393.902 222.737Z" fill="white"/>
<path d="M247.61 285.555C247.61 286.017 247.235 286.394 246.773 286.394C246.311 286.394 245.937 286.017 245.937 285.555C245.937 285.094 246.311 284.722 246.773 284.722C247.235 284.722 247.61 285.094 247.61 285.555Z" fill="white"/>
<path d="M201.673 313.264C201.673 313.725 201.299 314.097 200.837 314.097C200.374 314.097 200 313.725 200 313.264C200 312.802 200.374 312.425 200.837 312.425C201.299 312.425 201.673 312.802 201.673 313.264Z" fill="white"/>
<path d="M398.275 357.552C397.981 357.196 398.03 356.667 398.386 356.373C398.743 356.079 399.272 356.131 399.565 356.487C399.859 356.843 399.81 357.372 399.454 357.666C399.097 357.96 398.569 357.908 398.275 357.552Z" fill="white"/>
<path d="M202.51 235.965C202.51 236.427 202.135 236.798 201.673 236.798C201.211 236.798 200.837 236.427 200.837 235.965C200.837 235.498 201.211 235.127 201.673 235.127C202.135 235.127 202.51 235.498 202.51 235.965Z" fill="white"/>
<path d="M236.295 260.675C236.295 261.137 235.92 261.508 235.458 261.508C234.996 261.508 234.622 261.137 234.622 260.675C234.622 260.214 234.996 259.837 235.458 259.837C235.92 259.837 236.295 260.214 236.295 260.675Z" fill="white"/>
<path d="M253.483 253.533C253.483 253.995 253.108 254.372 252.646 254.372C252.184 254.372 251.809 253.995 251.809 253.533C251.809 253.072 252.184 252.695 252.646 252.695C253.108 252.695 253.483 253.072 253.483 253.533Z" fill="white"/>
<path d="M266.222 280.605C266.222 281.066 265.847 281.438 265.386 281.438C264.924 281.438 264.549 281.066 264.549 280.605C264.549 280.143 264.924 279.766 265.386 279.766C265.847 279.766 266.222 280.143 266.222 280.605Z" fill="white"/>
<path d="M332.334 336.56C332.48 336.409 332.683 336.312 332.913 336.31C333.366 336.299 333.744 336.663 333.751 337.116L333.831 341.195C333.837 341.648 333.476 342.024 333.023 342.035C332.567 342.042 332.192 341.681 332.182 341.225L332.106 337.149C332.099 336.919 332.187 336.713 332.334 336.56Z" fill="white"/>
<path d="M330.334 338.638C330.48 338.487 330.683 338.39 330.914 338.388L334.989 338.308C335.446 338.301 335.82 338.661 335.83 339.118C335.837 339.57 335.475 339.946 335.023 339.957L330.943 340.033C330.491 340.044 330.112 339.68 330.106 339.227C330.099 338.997 330.188 338.79 330.334 338.638Z" fill="white"/>
<path d="M333.991 401.594C333.659 401.274 333.647 400.742 333.967 400.409C334.288 400.076 334.819 400.068 335.151 400.388C335.484 400.708 335.492 401.236 335.171 401.568C334.851 401.901 334.324 401.914 333.991 401.594Z" fill="white"/>
<path d="M292.645 238.466C292.312 238.146 292.301 237.615 292.621 237.282C292.941 236.949 293.473 236.941 293.805 237.261C294.138 237.581 294.146 238.108 293.825 238.441C293.505 238.774 292.978 238.786 292.645 238.466Z" fill="white"/>
<path d="M305.814 248.818C305.481 248.497 305.469 247.966 305.79 247.633C306.11 247.3 306.641 247.292 306.974 247.612C307.307 247.932 307.318 248.463 306.998 248.796C306.677 249.129 306.146 249.138 305.814 248.818Z" fill="white"/>
<path d="M361.518 385.518C361.185 385.198 361.173 384.667 361.494 384.334C361.814 384.001 362.345 383.992 362.678 384.312C363.01 384.632 363.022 385.163 362.702 385.496C362.381 385.829 361.85 385.838 361.518 385.518Z" fill="white"/>
<path d="M273.677 288C273.675 288.461 273.299 288.837 272.837 288.835C272.375 288.833 272.002 288.454 272.004 287.993C272.005 287.531 272.382 287.156 272.844 287.158C273.306 287.16 273.679 287.538 273.677 288Z" fill="white"/>
<path d="M342.156 384.914C341.823 384.594 341.812 384.063 342.132 383.73C342.452 383.397 342.984 383.389 343.316 383.709C343.649 384.029 343.661 384.56 343.34 384.893C343.02 385.226 342.489 385.235 342.156 384.914Z" fill="white"/>
<path d="M300.81 221.787C300.477 221.467 300.465 220.936 300.786 220.603C301.106 220.27 301.638 220.261 301.97 220.581C302.303 220.901 302.314 221.433 301.994 221.766C301.674 222.098 301.142 222.107 300.81 221.787Z" fill="white"/>
<path d="M329.906 351.303C329.573 350.983 329.562 350.452 329.882 350.119C330.202 349.786 330.734 349.778 331.066 350.098C331.399 350.418 331.407 350.945 331.086 351.278C330.766 351.611 330.239 351.623 329.906 351.303Z" fill="white"/>
<path d="M388.459 312.853C388.605 312.702 388.808 312.605 389.038 312.603C389.491 312.592 389.869 312.956 389.875 313.409L389.956 317.488C389.962 317.941 389.6 318.316 389.148 318.328C388.692 318.335 388.317 317.974 388.307 317.518L388.23 313.442C388.223 313.212 388.312 313.006 388.459 312.853Z" fill="white"/>
<path d="M386.459 314.931C386.605 314.78 386.808 314.683 387.038 314.681L391.114 314.601C391.571 314.594 391.945 314.954 391.955 315.411C391.962 315.863 391.6 316.239 391.148 316.25L387.068 316.326C386.616 316.337 386.237 315.973 386.231 315.52C386.224 315.29 386.313 315.083 386.459 314.931Z" fill="white"/>
<path d="M292.361 378.187C292.062 378.539 291.533 378.584 291.18 378.286C290.828 377.987 290.786 377.457 291.084 377.105C291.383 376.753 291.909 376.712 292.261 377.011C292.614 377.309 292.659 377.835 292.361 378.187Z" fill="white"/>
<path d="M301.86 364.391C301.561 364.743 301.032 364.788 300.679 364.489C300.327 364.191 300.285 363.661 300.583 363.309C300.882 362.957 301.411 362.912 301.763 363.21C302.116 363.509 302.158 364.039 301.86 364.391Z" fill="white"/>
<path d="M274.579 351.731C274.28 352.083 273.751 352.128 273.398 351.829C273.046 351.531 273.003 351.001 273.302 350.649C273.6 350.297 274.13 350.251 274.482 350.55C274.835 350.849 274.877 351.379 274.579 351.731Z" fill="white"/>
<path d="M275.199 371.092C274.901 371.444 274.371 371.489 274.019 371.19C273.666 370.892 273.624 370.362 273.923 370.01C274.221 369.658 274.75 369.613 275.103 369.911C275.456 370.21 275.498 370.74 275.199 371.092Z" fill="white"/>
<path d="M386.031 327.596C385.698 327.276 385.686 326.745 386.007 326.412C386.327 326.079 386.858 326.07 387.191 326.391C387.523 326.711 387.531 327.238 387.211 327.571C386.89 327.904 386.363 327.916 386.031 327.596Z" fill="white"/>
<path d="M401.383 246.015C401.018 246.298 400.491 246.232 400.208 245.867C399.925 245.502 399.994 244.975 400.359 244.692C400.724 244.41 401.247 244.478 401.53 244.844C401.812 245.209 401.748 245.733 401.383 246.015Z" fill="white"/>
<path d="M301.368 324.553C302.039 324.117 302.23 323.214 301.793 322.543C301.357 321.871 300.455 321.679 299.783 322.115C299.111 322.552 298.92 323.454 299.357 324.126C299.793 324.798 300.695 324.99 301.368 324.553ZM298.887 320.736C300.32 319.805 302.243 320.212 303.174 321.645C304.106 323.077 303.697 325.001 302.264 325.932C300.831 326.864 298.907 326.456 297.976 325.024C297.045 323.591 297.453 321.668 298.887 320.736Z" fill="white"/>
<path d="M352.624 362.592C352.605 361.791 351.938 361.155 351.137 361.174C350.336 361.193 349.698 361.859 349.717 362.66C349.736 363.462 350.404 364.098 351.205 364.079C352.006 364.06 352.643 363.393 352.624 362.592ZM348.073 362.699C348.033 360.99 349.39 359.567 351.098 359.527C352.806 359.487 354.228 360.844 354.269 362.553C354.309 364.262 352.952 365.685 351.244 365.726C349.536 365.766 348.113 364.408 348.073 362.699Z" fill="white"/>
<path d="M254.99 314.764C255.166 314.65 255.386 314.602 255.611 314.652C256.054 314.743 256.34 315.184 256.244 315.626L255.399 319.618C255.303 320.06 254.866 320.344 254.422 320.253C253.976 320.157 253.693 319.721 253.786 319.274L254.634 315.287C254.679 315.061 254.813 314.88 254.99 314.764Z" fill="white"/>
<path d="M252.571 316.336C252.748 316.221 252.968 316.173 253.193 316.223L257.181 317.068C257.627 317.164 257.91 317.6 257.817 318.047C257.721 318.489 257.283 318.773 256.84 318.681L252.849 317.832C252.406 317.741 252.12 317.3 252.216 316.858C252.261 316.633 252.395 316.451 252.571 316.336Z" fill="white"/>
<path d="M300.011 354.786C299.759 354.398 299.868 353.878 300.255 353.627C300.643 353.375 301.162 353.487 301.414 353.874C301.665 354.261 301.554 354.776 301.166 355.028C300.779 355.28 300.262 355.173 300.011 354.786Z" fill="white"/>
<path d="M377.641 379.621C377.179 379.632 376.794 379.266 376.783 378.804C376.772 378.342 377.14 377.959 377.602 377.948C378.063 377.937 378.443 378.303 378.454 378.765C378.465 379.227 378.102 379.61 377.641 379.621Z" fill="white"/>
<path d="M311.167 335.454C310.916 335.067 311.025 334.547 311.412 334.295C311.799 334.043 312.318 334.155 312.57 334.542C312.821 334.929 312.713 335.449 312.325 335.701C311.938 335.953 311.419 335.841 311.167 335.454Z" fill="white"/>
<path d="M367.047 359.975C366.585 359.986 366.2 359.621 366.189 359.159C366.178 358.697 366.546 358.314 367.007 358.303C367.469 358.292 367.854 358.658 367.865 359.12C367.876 359.581 367.508 359.965 367.047 359.975Z" fill="white"/>
<path d="M287.866 298.067C287.614 297.68 287.723 297.16 288.11 296.908C288.498 296.657 289.017 296.768 289.269 297.156C289.52 297.543 289.409 298.058 289.021 298.31C288.634 298.562 288.117 298.454 287.866 298.067Z" fill="white"/>
<path d="M343.304 273.618C344.4 274.673 346.153 274.637 347.206 273.543C348.262 272.446 348.227 270.697 347.131 269.642C346.035 268.587 344.286 268.62 343.23 269.717C342.177 270.81 342.208 272.563 343.304 273.618ZM348.275 268.453C350.026 270.138 350.078 272.934 348.393 274.685C346.707 276.436 343.915 276.488 342.164 274.803C340.413 273.118 340.357 270.325 342.043 268.574C343.728 266.823 346.525 266.768 348.275 268.453Z" fill="white"/>
<path d="M341.992 298.682L344.93 301.51C345.258 301.825 345.27 302.345 344.953 302.673C344.637 303.002 344.117 303.01 343.789 302.695L340.851 299.867C340.523 299.551 340.512 299.032 340.828 298.703C341.144 298.374 341.664 298.366 341.992 298.682Z" fill="white"/>
<path d="M344.877 298.624C345.205 298.939 345.213 299.463 344.897 299.791L342.071 302.728C341.755 303.056 341.231 303.068 340.904 302.753C340.576 302.437 340.568 301.914 340.884 301.585L343.71 298.649C344.026 298.32 344.55 298.308 344.877 298.624Z" fill="white"/>
<path d="M318.578 273.247C318.898 272.914 319.429 272.902 319.762 273.223C320.095 273.543 320.103 274.074 319.783 274.407C319.463 274.739 318.936 274.747 318.603 274.427C318.27 274.107 318.258 273.579 318.578 273.247Z" fill="white"/>
<path d="M370.89 285.136C371.21 284.804 371.737 284.796 372.07 285.116C372.403 285.437 372.416 285.964 372.095 286.296C371.775 286.629 371.244 286.641 370.911 286.32C370.578 286 370.57 285.469 370.89 285.136Z" fill="white"/>
<path d="M321.343 291.862C321.092 291.475 321.203 290.959 321.59 290.708C321.978 290.456 322.494 290.563 322.746 290.95C322.997 291.337 322.889 291.857 322.501 292.109C322.114 292.361 321.595 292.249 321.343 291.862Z" fill="white"/>
<path d="M234.256 343.328C234.901 342.854 235.039 341.942 234.565 341.296C234.09 340.651 233.179 340.511 232.533 340.986C231.887 341.461 231.749 342.372 232.224 343.018C232.699 343.663 233.61 343.803 234.256 343.328ZM231.559 339.661C232.936 338.648 234.879 338.944 235.892 340.32C236.904 341.697 236.608 343.64 235.23 344.653C233.853 345.666 231.909 345.37 230.897 343.994C229.885 342.618 230.182 340.674 231.559 339.661Z" fill="white"/>
<path d="M234.648 373.588C234.375 373.217 234.453 372.691 234.826 372.417C235.198 372.144 235.723 372.225 235.996 372.597C236.27 372.969 236.188 373.49 235.816 373.764C235.444 374.038 234.922 373.96 234.648 373.588Z" fill="white"/>
<path d="M244.669 353.644C244.396 353.272 244.474 352.747 244.846 352.474C245.218 352.2 245.743 352.281 246.017 352.653C246.29 353.025 246.212 353.551 245.84 353.824C245.468 354.098 244.943 354.016 244.669 353.644Z" fill="white"/>
<path d="M219.246 317.667C218.973 317.295 219.051 316.77 219.423 316.496C219.796 316.222 220.321 316.303 220.594 316.675C220.868 317.047 220.786 317.568 220.414 317.842C220.041 318.116 219.52 318.039 219.246 317.667Z" fill="white"/>
<path d="M207.848 389.433C207.575 389.061 207.653 388.536 208.026 388.262C208.398 387.988 208.923 388.07 209.196 388.442C209.47 388.814 209.391 389.339 209.019 389.613C208.647 389.887 208.122 389.805 207.848 389.433Z" fill="white"/>
</g>
<g clip-path="url(#clip2)">
<path d="M42.5807 231.943C41.7796 231.943 41.1281 232.596 41.1281 233.397C41.1281 234.198 41.7796 234.851 42.5807 234.851C43.3823 234.851 44.0338 234.198 44.0338 233.397C44.0338 232.596 43.3823 231.943 42.5807 231.943ZM42.5807 236.495C40.8713 236.495 39.4808 235.105 39.4808 233.397C39.4808 231.688 40.8713 230.298 42.5807 230.298C44.29 230.298 45.681 231.688 45.681 233.397C45.681 235.105 44.29 236.495 42.5807 236.495Z" fill="white"/>
<path d="M76.1329 265.424C75.9223 265.424 75.7117 265.345 75.5509 265.18C75.2289 264.862 75.2289 264.336 75.5509 264.018L78.4343 261.132C78.7564 260.813 79.2773 260.813 79.5994 261.132C79.9209 261.455 79.9209 261.975 79.5994 262.299L76.7154 265.18C76.5547 265.345 76.3441 265.424 76.1329 265.424Z" fill="white"/>
<path d="M124.057 403.268C123.861 403.19 123.694 403.039 123.605 402.827C123.423 402.412 123.616 401.924 124.033 401.746L127.776 400.123C128.193 399.946 128.677 400.138 128.859 400.552C129.039 400.971 128.848 401.455 128.43 401.638L124.688 403.255C124.478 403.349 124.253 403.346 124.057 403.268Z" fill="white"/>
<path d="M79.0168 265.424C78.8062 265.424 78.5956 265.345 78.4343 265.18L75.5509 262.299C75.2289 261.975 75.2289 261.455 75.5509 261.132C75.8724 260.813 76.3939 260.813 76.7154 261.132L79.5994 264.018C79.9209 264.336 79.9209 264.862 79.5994 265.18C79.4386 265.345 79.2275 265.424 79.0168 265.424Z" fill="white"/>
<path d="M126.738 404.329C126.542 404.252 126.376 404.1 126.286 403.888L124.665 400.148C124.485 399.728 124.676 399.245 125.095 399.062C125.511 398.885 125.996 399.076 126.178 399.491L127.797 403.236C127.979 403.65 127.786 404.139 127.37 404.317C127.16 404.41 126.934 404.407 126.738 404.329Z" fill="white"/>
<path d="M143.371 260.349L140.85 257.143C140.569 256.786 140.633 256.266 140.987 255.987C141.346 255.705 141.866 255.766 142.147 256.123L144.668 259.329C144.95 259.687 144.886 260.206 144.527 260.488C144.173 260.767 143.653 260.707 143.371 260.349Z" fill="white"/>
<path d="M28.3461 351.394L31.4917 348.798C31.8428 348.508 32.3636 348.56 32.6507 348.908C32.9411 349.26 32.8931 349.781 32.542 350.071L29.3964 352.666C29.0449 352.956 28.5246 352.904 28.2341 352.552C27.9471 352.204 27.9946 351.684 28.3461 351.394Z" fill="white"/>
<path d="M140.509 260.006C140.228 259.648 140.288 259.132 140.647 258.85L143.854 256.328C144.212 256.046 144.728 256.109 145.009 256.467C145.291 256.825 145.231 257.34 144.872 257.622L141.665 260.145C141.306 260.427 140.791 260.364 140.509 260.006Z" fill="white"/>
<path d="M28.6219 348.524C28.9733 348.234 29.4903 348.282 29.7807 348.634L32.3778 351.782C32.6683 352.134 32.6174 352.65 32.2659 352.94C31.9149 353.23 31.3979 353.182 31.1074 352.83L28.5103 349.683C28.2199 349.331 28.2708 348.814 28.6219 348.524Z" fill="white"/>
<path d="M184.773 250.197C184.643 250.032 184.575 249.817 184.6 249.592L185.087 245.541C185.138 245.091 185.551 244.766 186 244.822C186.454 244.875 186.776 245.285 186.72 245.738L186.238 249.786C186.183 250.239 185.774 250.56 185.321 250.508C185.096 250.48 184.903 250.363 184.773 250.197Z" fill="white"/>
<path d="M182.99 247.93C182.86 247.765 182.792 247.55 182.818 247.325C182.873 246.872 183.282 246.551 183.735 246.603L187.783 247.089C188.236 247.142 188.558 247.552 188.503 248.005C188.452 248.454 188.039 248.779 187.59 248.723L183.538 248.241C183.313 248.213 183.12 248.096 182.99 247.93Z" fill="white"/>
<path d="M60.1933 207.333C60.1933 207.795 59.8187 208.172 59.3566 208.172C58.8945 208.172 58.52 207.795 58.52 207.333C58.52 206.872 58.8945 206.5 59.3566 206.5C59.8187 206.5 60.1933 206.872 60.1933 207.333Z" fill="white"/>
<path d="M40.3041 217.463C40.3041 217.924 39.9296 218.301 39.468 218.301C39.0059 218.301 38.6313 217.924 38.6313 217.463C38.6313 217.001 39.0059 216.624 39.468 216.624C39.9296 216.624 40.3041 217.001 40.3041 217.463Z" fill="white"/>
<path d="M121.842 219.134C121.842 219.596 121.467 219.972 121.005 219.972C120.543 219.972 120.168 219.596 120.168 219.134C120.168 218.672 120.543 218.301 121.005 218.301C121.467 218.301 121.842 218.672 121.842 219.134Z" fill="white"/>
<path d="M120.168 202.468C120.168 202.929 119.794 203.306 119.332 203.306C118.87 203.306 118.495 202.929 118.495 202.468C118.495 202.006 118.87 201.629 119.332 201.629C119.794 201.629 120.168 202.006 120.168 202.468Z" fill="white"/>
<path d="M39.468 261.508C39.468 261.97 39.0934 262.347 38.6313 262.347C38.1691 262.347 37.7946 261.97 37.7946 261.508C37.7946 261.047 38.1691 260.675 38.6313 260.675C39.0934 260.675 39.468 261.047 39.468 261.508Z" fill="white"/>
<path d="M91.171 210.448C91.171 210.91 90.7964 211.286 90.3343 211.286C89.8722 211.286 89.4976 210.91 89.4976 210.448C89.4976 209.986 89.8722 209.61 90.3343 209.61C90.7964 209.61 91.171 209.986 91.171 210.448Z" fill="white"/>
<path d="M176.417 204.662C176.054 204.947 175.526 204.886 175.24 204.523C174.955 204.159 175.019 203.632 175.382 203.347C175.745 203.061 176.273 203.123 176.558 203.486C176.844 203.849 176.779 204.377 176.417 204.662Z" fill="white"/>
<path d="M160.391 228.688C160.029 228.973 159.505 228.908 159.219 228.545C158.934 228.182 158.995 227.658 159.357 227.373C159.724 227.084 160.248 227.149 160.533 227.512C160.819 227.875 160.758 228.399 160.391 228.688Z" fill="white"/>
<path d="M148.821 290.557C148.458 290.843 147.93 290.781 147.645 290.418C147.359 290.055 147.424 289.527 147.786 289.242C148.149 288.956 148.677 289.018 148.963 289.381C149.248 289.744 149.184 290.272 148.821 290.557Z" fill="white"/>
<path d="M-1.72531 357.552C-2.01911 357.196 -1.96999 356.667 -1.61357 356.373C-1.25716 356.079 -0.728494 356.131 -0.434685 356.487C-0.140877 356.843 -0.190005 357.372 -0.546419 357.666C-0.902833 357.96 -1.4315 357.908 -1.72531 357.552Z" fill="white"/>
<path d="M104.162 224.817C104.162 225.279 103.788 225.655 103.326 225.655C102.863 225.655 102.489 225.279 102.489 224.817C102.489 224.355 102.863 223.979 103.326 223.979C103.788 223.979 104.162 224.355 104.162 224.817Z" fill="white"/>
<path d="M88.439 256.95C88.439 257.412 88.0645 257.789 87.6024 257.789C87.1403 257.789 86.7658 257.412 86.7658 256.95C86.7658 256.489 87.1403 256.117 87.6024 256.117C88.0645 256.117 88.439 256.489 88.439 256.95Z" fill="white"/>
<path d="M138.617 399.917C138.448 400.346 137.961 400.559 137.531 400.389C137.101 400.219 136.892 399.731 137.062 399.301C137.231 398.872 137.716 398.665 138.146 398.835C138.576 399.005 138.787 399.488 138.617 399.917Z" fill="white"/>
<path d="M192.537 268.207C192.174 268.492 191.646 268.431 191.361 268.068C191.075 267.704 191.14 267.177 191.503 266.892C191.865 266.606 192.393 266.668 192.679 267.031C192.964 267.394 192.9 267.922 192.537 268.207Z" fill="white"/>
<path d="M74.8594 288.528C74.9749 288.704 75.0238 288.924 74.9789 289.146C74.8848 289.593 74.45 289.878 74.0027 289.786L70.0121 288.955C69.5648 288.863 69.2791 288.427 69.3732 287.981C69.4631 287.537 69.9024 287.249 70.3449 287.343L74.3403 288.172C74.5615 288.219 74.7436 288.352 74.8594 288.528Z" fill="white"/>
<path d="M73.2779 286.117C73.3934 286.293 73.4423 286.513 73.3976 286.735L72.5651 290.729C72.4755 291.173 72.0362 291.461 71.5933 291.366C71.1464 291.275 70.8604 290.839 70.9547 290.392L71.7826 286.401C71.8769 285.954 72.3118 285.669 72.7587 285.76C72.98 285.808 73.1624 285.94 73.2779 286.117Z" fill="white"/>
<path d="M157.143 293.49L159.379 296.9C159.629 297.281 159.525 297.79 159.143 298.04C158.762 298.29 158.253 298.183 158.004 297.802L155.767 294.392C155.518 294.012 155.622 293.503 156.004 293.252C156.385 293.002 156.893 293.11 157.143 293.49Z" fill="white"/>
<path d="M159.969 294.075C160.219 294.455 160.11 294.967 159.729 295.217L156.321 297.452C155.939 297.702 155.427 297.598 155.177 297.217C154.928 296.837 155.036 296.325 155.418 296.075L158.825 293.84C159.207 293.59 159.72 293.694 159.969 294.075Z" fill="white"/>
<path d="M123.231 328.396C123.617 328.142 124.133 328.252 124.386 328.638C124.64 329.025 124.534 329.542 124.148 329.795C123.758 330.051 123.242 329.941 122.988 329.555C122.735 329.169 122.84 328.652 123.231 328.396Z" fill="white"/>
<path d="M125.367 286.593C125.753 286.34 126.269 286.449 126.523 286.836C126.776 287.222 126.671 287.739 126.285 287.992C125.899 288.245 125.378 288.139 125.125 287.752C124.872 287.366 124.981 286.846 125.367 286.593Z" fill="white"/>
<path d="M109.969 276.136C110.355 275.883 110.876 275.99 111.129 276.376C111.383 276.763 111.273 277.283 110.887 277.536C110.501 277.789 109.981 277.682 109.727 277.296C109.474 276.909 109.583 276.39 109.969 276.136Z" fill="white"/>
<path d="M43.9448 367.274C44.0909 367.122 44.2943 367.025 44.5242 367.023C44.977 367.012 45.3555 367.376 45.3617 367.829L45.4429 371.908C45.449 372.361 45.0878 372.736 44.6351 372.748C44.179 372.755 43.8042 372.395 43.7938 371.939L43.7169 367.863C43.7098 367.633 43.7985 367.426 43.9448 367.274Z" fill="white"/>
<path d="M41.9454 369.352C42.0914 369.2 42.2948 369.104 42.5251 369.101L46.6007 369.021C47.0572 369.013 47.432 369.374 47.442 369.83C47.4485 370.283 47.0869 370.658 46.6346 370.669L42.5549 370.747C42.1025 370.758 41.7239 370.393 41.7174 369.941C41.7103 369.711 41.7994 369.504 41.9454 369.352Z" fill="white"/>
<path d="M99.6558 325.758C99.9773 325.426 100.508 325.417 100.84 325.739C101.172 326.06 101.178 326.592 100.857 326.923C100.535 327.254 100.008 327.26 99.6761 326.938C99.3445 326.616 99.3344 326.089 99.6558 325.758Z" fill="white"/>
<path d="M89.2494 338.883C89.5708 338.552 90.1019 338.542 90.4335 338.864C90.7651 339.186 90.7716 339.717 90.4501 340.048C90.1286 340.379 89.5974 340.389 89.2659 340.067C88.9343 339.745 88.9279 339.214 89.2494 338.883Z" fill="white"/>
<path d="M63.5561 373.157C63.3127 373.549 62.7958 373.672 62.4032 373.428C62.0106 373.184 61.891 372.667 62.1345 372.275C62.3779 371.882 62.8949 371.76 63.2875 372.004C63.6801 372.247 63.7996 372.765 63.5561 373.157Z" fill="white"/>
<path d="M67.0156 392.217C66.7721 392.609 66.2552 392.732 65.8626 392.488C65.47 392.244 65.3505 391.726 65.5939 391.334C65.8374 390.942 66.3543 390.82 66.7469 391.063C67.1394 391.307 67.259 391.825 67.0156 392.217Z" fill="white"/>
<path d="M41.5198 382.017C41.1871 381.697 41.1752 381.166 41.4956 380.833C41.816 380.5 42.3472 380.491 42.6799 380.811C43.0126 381.131 43.0206 381.659 42.7002 381.992C42.3798 382.325 41.8525 382.337 41.5198 382.017Z" fill="white"/>
<path d="M35.8486 311.895C36.4041 311.318 36.3856 310.396 35.8083 309.84C35.231 309.285 34.3091 309.302 33.7536 309.879C33.1977 310.456 33.2161 311.378 33.7934 311.934C34.3707 312.489 35.2927 312.473 35.8486 311.895ZM32.5684 308.738C33.7537 307.507 35.7196 307.469 36.9506 308.653C38.1817 309.838 38.2191 311.804 37.0338 313.036C35.8485 314.267 33.8822 314.306 32.6511 313.121C31.4201 311.936 31.3831 309.97 32.5684 308.738Z" fill="white"/>
<path d="M41.3671 341.65C41.0345 341.33 41.0227 340.799 41.3432 340.466C41.6636 340.133 42.1948 340.125 42.5274 340.445C42.86 340.765 42.8679 341.292 42.5475 341.625C42.227 341.958 41.6997 341.971 41.3671 341.65Z" fill="white"/>
<path d="M47.8604 320.296C47.5278 319.976 47.5161 319.445 47.8361 319.112C48.1566 318.779 48.6878 318.77 49.0204 319.091C49.353 319.411 49.3648 319.942 49.0443 320.275C48.7242 320.607 48.193 320.616 47.8604 320.296Z" fill="white"/>
<path d="M13.4763 395.11C13.1779 395.462 12.6486 395.508 12.2961 395.209C11.9435 394.91 11.9012 394.381 12.1996 394.029C12.4979 393.676 13.0273 393.631 13.3798 393.93C13.7324 394.228 13.7747 394.758 13.4763 395.11Z" fill="white"/>
<path d="M16.7045 289.151C16.3718 288.831 16.3601 288.3 16.6805 287.967C17.001 287.634 17.5322 287.625 17.8648 287.945C18.1975 288.265 18.2053 288.793 17.8849 289.126C17.5644 289.459 17.0371 289.471 16.7045 289.151Z" fill="white"/>
<path d="M158.422 317.258C158.152 317.633 157.631 317.715 157.256 317.445C156.882 317.175 156.795 316.655 157.065 316.28C157.338 315.901 157.859 315.819 158.234 316.089C158.609 316.359 158.695 316.879 158.422 317.258Z" fill="white"/>
<path d="M1.383 246.015C1.01802 246.298 0.490826 246.232 0.208019 245.867C-0.0749189 245.502 -0.00638656 244.975 0.358599 244.692C0.723585 244.41 1.24658 244.478 1.52952 244.844C1.81233 245.209 1.74799 245.733 1.383 246.015Z" fill="white"/>
<path d="M14.1276 221.836C13.7626 222.119 13.2396 222.05 12.9567 221.685C12.6738 221.319 12.7382 220.796 13.1031 220.513C13.4681 220.231 13.9953 220.296 14.2782 220.662C14.5611 221.027 14.4925 221.554 14.1276 221.836Z" fill="white"/>
<path d="M16.6921 257.7C16.3271 257.983 15.8041 257.914 15.5215 257.549C15.2386 257.184 15.3029 256.66 15.6679 256.378C16.0329 256.095 16.5602 256.161 16.8431 256.526C17.1257 256.891 17.0571 257.418 16.6921 257.7Z" fill="white"/>
<path d="M152.786 336.314C151.985 336.314 151.333 336.966 151.333 337.767C151.333 338.569 151.985 339.221 152.786 339.221C153.588 339.221 154.239 338.569 154.239 337.767C154.239 336.966 153.588 336.314 152.786 336.314ZM152.786 340.866C151.076 340.866 149.686 339.476 149.686 337.767C149.686 336.059 151.076 334.669 152.786 334.669C154.495 334.669 155.886 336.059 155.886 337.767C155.886 339.476 154.495 340.866 152.786 340.866Z" fill="white"/>
<path d="M186.338 369.795C186.128 369.795 185.917 369.715 185.756 369.551C185.434 369.232 185.434 368.707 185.756 368.389L188.64 365.502C188.962 365.184 189.483 365.184 189.805 365.502C190.126 365.826 190.126 366.346 189.805 366.669L186.921 369.551C186.76 369.715 186.549 369.795 186.338 369.795Z" fill="white"/>
<path d="M189.222 369.795C189.012 369.795 188.801 369.715 188.64 369.551L185.756 366.669C185.434 366.346 185.434 365.826 185.756 365.502C186.078 365.184 186.599 365.184 186.921 365.502L189.805 368.389C190.126 368.707 190.126 369.232 189.805 369.551C189.644 369.715 189.433 369.795 189.222 369.795Z" fill="white"/>
<path d="M170.398 311.704C170.398 312.166 170.024 312.542 169.562 312.542C169.1 312.542 168.725 312.166 168.725 311.704C168.725 311.242 169.1 310.871 169.562 310.871C170.024 310.871 170.398 311.242 170.398 311.704Z" fill="white"/>
<path d="M150.509 321.833C150.509 322.295 150.135 322.672 149.673 322.672C149.211 322.672 148.837 322.295 148.837 321.833C148.837 321.372 149.211 320.995 149.673 320.995C150.135 320.995 150.509 321.372 150.509 321.833Z" fill="white"/>
<path d="M149.673 365.879C149.673 366.341 149.299 366.717 148.837 366.717C148.375 366.717 148 366.341 148 365.879C148 365.417 148.375 365.046 148.837 365.046C149.299 365.046 149.673 365.417 149.673 365.879Z" fill="white"/>
<path d="M201.376 314.819C201.376 315.28 201.002 315.657 200.54 315.657C200.077 315.657 199.703 315.28 199.703 314.819C199.703 314.357 200.077 313.98 200.54 313.98C201.002 313.98 201.376 314.357 201.376 314.819Z" fill="white"/>
<path d="M198.644 361.321C198.644 361.783 198.27 362.159 197.808 362.159C197.346 362.159 196.971 361.783 196.971 361.321C196.971 360.859 197.346 360.488 197.808 360.488C198.27 360.488 198.644 360.859 198.644 361.321Z" fill="white"/>
<path d="M118.222 352.838C118.222 353.3 117.847 353.671 117.386 353.671C116.924 353.671 116.549 353.3 116.549 352.838C116.549 352.377 116.924 352 117.386 352C117.847 352 118.222 352.377 118.222 352.838Z" fill="white"/>
<path d="M175.813 391.996L172.727 394.662C172.382 394.96 171.86 394.92 171.566 394.578C171.267 394.233 171.303 393.711 171.648 393.413L174.734 390.747C175.079 390.449 175.6 390.489 175.898 390.835C176.193 391.176 176.158 391.698 175.813 391.996Z" fill="white"/>
<path d="M175.602 394.87C175.257 395.168 174.739 395.132 174.441 394.787L171.773 391.699C171.475 391.354 171.514 390.836 171.859 390.538C172.203 390.241 172.721 390.277 173.02 390.622L175.687 393.71C175.986 394.055 175.947 394.573 175.602 394.87Z" fill="white"/>
</g>
<g clip-path="url(#clip3)">
<path d="M124.057 3.26792C123.861 3.19041 123.694 3.03892 123.605 2.82682C123.423 2.41229 123.616 1.92382 124.033 1.7463L127.776 0.123356C128.193 -0.054169 128.677 0.137542 128.859 0.552071C129.039 0.971338 128.848 1.45485 128.43 1.6375L124.688 3.25534C124.478 3.34913 124.253 3.34562 124.057 3.26792Z" fill="white"/>
<path d="M126.738 4.32916C126.542 4.25166 126.376 4.10017 126.286 3.88787L124.665 0.147734C124.485 -0.271729 124.676 -0.755239 125.095 -0.937698C125.511 -1.11542 125.996 -0.923507 126.178 -0.509174L127.797 3.23607C127.979 3.6504 127.786 4.13886 127.37 4.31658C127.16 4.41038 126.934 4.40667 126.738 4.32916Z" fill="white"/>
<path d="M129.537 152.094L132.682 149.498C133.033 149.208 133.554 149.26 133.841 149.608C134.132 149.96 134.084 150.481 133.732 150.771L130.587 153.367C130.235 153.657 129.715 153.604 129.425 153.253C129.137 152.905 129.185 152.384 129.537 152.094Z" fill="white"/>
<path d="M129.812 149.225C130.164 148.935 130.681 148.983 130.971 149.335L133.568 152.482C133.859 152.834 133.808 153.35 133.456 153.641C133.105 153.93 132.588 153.882 132.298 153.53L129.701 150.383C129.41 150.031 129.461 149.514 129.812 149.225Z" fill="white"/>
<path d="M140.659 193.245C140.821 193.111 141.035 193.038 141.26 193.059L145.322 193.45C145.772 193.49 146.107 193.896 146.061 194.346C146.019 194.8 145.617 195.132 145.163 195.087L141.104 194.701C140.65 194.656 140.319 194.255 140.361 193.8C140.384 193.575 140.496 193.379 140.659 193.245Z" fill="white"/>
<path d="M142.883 191.41C143.046 191.276 143.259 191.203 143.485 191.223C143.939 191.268 144.269 191.669 144.228 192.124L143.837 196.181C143.795 196.636 143.393 196.968 142.938 196.923C142.488 196.882 142.153 196.477 142.199 196.027L142.586 191.965C142.609 191.74 142.721 191.544 142.883 191.41Z" fill="white"/>
<path d="M180.582 67.6924C180.12 67.7032 179.735 67.3377 179.724 66.8757C179.713 66.4137 180.081 66.0304 180.542 66.0196C181.004 66.0087 181.384 66.3744 181.395 66.8364C181.406 67.2984 181.043 67.6815 180.582 67.6924Z" fill="white"/>
<path d="M170.234 129.601C169.772 129.612 169.387 129.246 169.376 128.784C169.365 128.322 169.733 127.939 170.195 127.928C170.656 127.917 171.036 128.283 171.047 128.745C171.058 129.207 170.696 129.59 170.234 129.601Z" fill="white"/>
<path d="M186.856 127.536C186.395 127.547 186.009 127.182 185.999 126.72C185.988 126.258 186.355 125.875 186.817 125.864C187.278 125.853 187.664 126.218 187.675 126.68C187.686 127.142 187.318 127.526 186.856 127.536Z" fill="white"/>
<path d="M178.196 98.7347C177.735 98.7455 177.35 98.3799 177.339 97.918C177.328 97.456 177.696 97.0727 178.157 97.0619C178.619 97.051 179.004 97.4166 179.015 97.8786C179.026 98.3405 178.658 98.7238 178.196 98.7347Z" fill="white"/>
<path d="M185.985 183.821C185.691 183.465 185.74 182.936 186.097 182.642C186.453 182.347 186.982 182.4 187.276 182.756C187.569 183.112 187.52 183.641 187.164 183.935C186.807 184.229 186.279 184.177 185.985 183.821Z" fill="white"/>
<path d="M161.589 168.365C161.295 168.009 161.348 167.484 161.704 167.19C162.06 166.896 162.585 166.944 162.879 167.3C163.176 167.66 163.124 168.185 162.768 168.479C162.412 168.773 161.886 168.725 161.589 168.365Z" fill="white"/>
<path d="M99.4652 158.252C99.1714 157.896 99.2205 157.367 99.5769 157.073C99.9333 156.779 100.462 156.831 100.756 157.187C101.049 157.543 101 158.072 100.644 158.366C100.288 158.66 99.759 158.608 99.4652 158.252Z" fill="white"/>
<path d="M123.977 39.5035C124.061 39.0496 124.497 38.7523 124.952 38.8363C125.406 38.9203 125.707 39.3536 125.623 39.8076C125.539 40.2616 125.102 40.5639 124.648 40.4799C124.193 40.396 123.894 39.9575 123.977 39.5035Z" fill="white"/>
<path d="M164.137 112.06C163.676 112.071 163.29 111.705 163.279 111.243C163.268 110.782 163.636 110.398 164.098 110.387C164.559 110.377 164.945 110.742 164.955 111.204C164.966 111.666 164.599 112.049 164.137 112.06Z" fill="white"/>
<path d="M138.617 -0.082863C138.448 0.346373 137.961 0.558885 137.531 0.388851C137.101 0.218817 136.892 -0.269341 137.062 -0.698577C137.231 -1.12781 137.716 -1.33531 138.146 -1.16528C138.576 -0.995247 138.787 -0.512099 138.617 -0.082863Z" fill="white"/>
<path d="M122.837 201.431C122.543 201.075 122.592 200.546 122.949 200.251C123.305 199.957 123.834 200.009 124.127 200.366C124.421 200.722 124.372 201.251 124.016 201.545C123.659 201.839 123.131 201.787 122.837 201.431Z" fill="white"/>
<path d="M120.274 188.921C120.741 188.921 121.112 189.296 121.112 189.758C121.112 190.22 120.741 190.595 120.274 190.595C119.812 190.595 119.441 190.22 119.441 189.758C119.441 189.296 119.812 188.921 120.274 188.921Z" fill="white"/>
<path d="M12.2687 126.307C12.4369 126.737 12.2253 127.224 11.7949 127.393C11.3646 127.561 10.8786 127.347 10.7104 126.917C10.5423 126.487 10.7539 126 11.1842 125.831C11.6145 125.663 12.1006 125.877 12.2687 126.307Z" fill="white"/>
<path d="M14.7833 112.02C14.9514 112.45 14.7379 112.932 14.3075 113.101C13.8772 113.269 13.3931 113.06 13.225 112.63C13.0549 112.195 13.2684 111.712 13.6988 111.544C14.1291 111.376 14.6132 111.585 14.7833 112.02Z" fill="white"/>
<path d="M123.728 68.024C124.148 67.8343 124.646 68.0209 124.836 68.4422C125.026 68.8634 124.836 69.3597 124.415 69.5495C123.994 69.7392 123.502 69.5504 123.312 69.1291C123.122 68.7078 123.307 68.2137 123.728 68.024Z" fill="white"/>
<path d="M45.6153 32.3065C45.2827 31.9865 45.2708 31.4553 45.5911 31.1223C45.9115 30.7893 46.4427 30.7806 46.7753 31.1006C47.108 31.4207 47.116 31.9481 46.7956 32.2811C46.4753 32.6141 45.948 32.6266 45.6153 32.3065Z" fill="white"/>
<path d="M93.7613 41.5276C93.3073 41.4437 93.0049 41.007 93.0888 40.5526C93.1728 40.0982 93.6114 39.7983 94.0653 39.8822C94.5193 39.9661 94.8164 40.4019 94.7325 40.8563C94.6485 41.3107 94.2152 41.6115 93.7613 41.5276Z" fill="white"/>
<path d="M109.222 76.3989C109.642 76.2092 110.14 76.3959 110.33 76.8171C110.52 77.2384 110.33 77.7347 109.909 77.9244C109.488 78.1141 108.991 77.9275 108.801 77.5062C108.611 77.085 108.801 76.5886 109.222 76.3989Z" fill="white"/>
<path d="M58.786 42.6551C58.4533 42.3351 58.4416 41.804 58.7619 41.471C59.0823 41.1379 59.6134 41.1291 59.9461 41.4492C60.2788 41.7692 60.2907 42.3004 59.9703 42.6334C59.6499 42.9665 59.1187 42.9752 58.786 42.6551Z" fill="white"/>
<path d="M110.454 42.9106C110 42.8268 109.698 42.39 109.782 41.9356C109.866 41.4811 110.304 41.1813 110.758 41.2651C111.212 41.349 111.514 41.7858 111.431 42.2402C111.347 42.6946 110.908 42.9945 110.454 42.9106Z" fill="white"/>
<path d="M189.481 141.682C189.942 141.682 190.314 142.057 190.314 142.519C190.314 142.981 189.942 143.356 189.481 143.356C189.019 143.356 188.642 142.981 188.642 142.519C188.642 142.057 189.019 141.682 189.481 141.682Z" fill="white"/>
<path d="M53.7767 15.6258C53.444 15.3057 53.4322 14.7746 53.7525 14.4415C54.0729 14.1085 54.6041 14.0998 54.9367 14.4198C55.2694 14.7399 55.2811 15.271 54.9608 15.604C54.6404 15.937 54.1093 15.9458 53.7767 15.6258Z" fill="white"/>
<path d="M3.98025 8.90806C3.68186 9.26029 3.15253 9.30567 2.79995 9.00699C2.44738 8.7083 2.40514 8.17872 2.70353 7.82649C3.00193 7.47426 3.52777 7.43299 3.88035 7.73167C4.23292 8.03035 4.27865 8.55583 3.98025 8.90806Z" fill="white"/>
<path d="M5.15234 193.739C5.15234 194.201 4.77777 194.578 4.31566 194.578C3.85355 194.578 3.47897 194.201 3.47897 193.739C3.47897 193.278 3.85355 192.901 4.31566 192.901C4.77777 192.901 5.15234 193.278 5.15234 193.739Z" fill="white"/>
<path d="M14.608 145.56C14.608 146.022 14.2334 146.399 13.7712 146.399C13.3091 146.399 12.9345 146.022 12.9345 145.56C12.9345 145.099 13.3091 144.722 13.7712 144.722C14.2334 144.722 14.608 145.099 14.608 145.56Z" fill="white"/>
<path d="M12.9307 92.9631C13.1382 92.9994 13.332 93.1141 13.4629 93.2986C13.7243 93.6729 13.6347 94.1851 13.2617 94.4485L9.92484 96.7897C9.55184 97.053 9.03865 96.9632 8.77721 96.5889C8.51537 96.2199 8.6059 95.7024 8.97746 95.4442L12.3158 93.0979C12.5016 92.9688 12.7227 92.9267 12.9307 92.9631Z" fill="white"/>
<path d="M10.0899 92.4661C10.2973 92.5024 10.4911 92.6171 10.6225 92.8017L12.9654 96.1419C13.2278 96.511 13.1373 97.0285 12.7652 97.2866C12.3927 97.55 11.879 97.4601 11.6181 97.0859L9.27373 93.7508C9.01282 93.3765 9.10243 92.8643 9.4749 92.6009C9.66068 92.4718 9.88239 92.4298 10.0899 92.4661Z" fill="white"/>
<path d="M52.4404 102.175C52.5199 101.721 52.9537 101.414 53.409 101.494C53.864 101.573 54.1682 102.009 54.0886 102.464C54.0091 102.918 53.5751 103.225 53.12 103.145C52.6648 103.066 52.3608 102.63 52.4404 102.175Z" fill="white"/>
<path d="M75.1023 84.9705C75.1818 84.5157 75.6148 84.2143 76.0698 84.2939C76.5251 84.3736 76.83 84.8041 76.7505 85.2588C76.67 85.7188 76.2371 86.0201 75.7818 85.9405C75.3267 85.8608 75.0218 85.4305 75.1023 84.9705Z" fill="white"/>
<path d="M27.9197 58.881C27.9992 58.4262 28.4331 58.1197 28.8882 58.1994C29.3434 58.279 29.6473 58.7146 29.5678 59.1693C29.4882 59.624 29.0545 59.9307 28.5993 59.851C28.1441 59.7714 27.8401 59.3357 27.9197 58.881Z" fill="white"/>
<path d="M53.8146 163.292C53.7957 162.491 53.1279 161.855 52.3269 161.874C51.5259 161.893 50.8888 162.56 50.9077 163.36C50.9265 164.162 51.5942 164.798 52.3952 164.779C53.1962 164.76 53.8334 164.094 53.8146 163.292ZM49.2632 163.399C49.223 161.69 50.5801 160.267 52.2882 160.227C53.9963 160.187 55.4188 161.545 55.459 163.253C55.4992 164.962 54.1421 166.386 52.434 166.426C50.7259 166.466 49.3034 165.108 49.2632 163.399Z" fill="white"/>
<path d="M78.8313 180.321C78.3698 180.332 77.9843 179.966 77.9734 179.504C77.9626 179.043 78.3304 178.659 78.7919 178.648C79.2534 178.638 79.6335 179.003 79.6444 179.465C79.6553 179.927 79.2928 180.31 78.8313 180.321Z" fill="white"/>
<path d="M68.2371 160.676C67.7757 160.687 67.3902 160.321 67.3794 159.86C67.3685 159.398 67.7363 159.014 68.1978 159.003C68.6593 158.993 69.0447 159.358 69.0556 159.82C69.0665 160.282 68.6986 160.665 68.2371 160.676Z" fill="white"/>
<path d="M199.018 96.0703H194.94C194.485 96.0703 194.116 95.6989 194.116 95.2479C194.116 94.7915 194.485 94.4201 194.94 94.4201H199.018C199.474 94.4201 199.842 94.7915 199.842 95.2479C199.842 95.6989 199.474 96.0703 199.018 96.0703Z" fill="white"/>
<path d="M196.98 98.1079C196.524 98.1079 196.156 97.7418 196.156 97.2855V93.205C196.156 92.7487 196.524 92.3825 196.98 92.3825C197.435 92.3825 197.803 92.7487 197.803 93.205V97.2855C197.803 97.7418 197.435 98.1079 196.98 98.1079Z" fill="white"/>
<path d="M175.673 35.6713C175.673 36.133 175.299 36.5098 174.837 36.5098C174.375 36.5098 174 36.133 174 35.6713C174 35.2097 174.375 34.833 174.837 34.833C175.299 34.833 175.673 35.2097 175.673 35.6713Z" fill="white"/>
<path d="M184.653 63.1196C184.653 63.5812 184.278 63.9526 183.816 63.9526C183.354 63.9526 182.98 63.5812 182.98 63.1196C182.98 62.6527 183.354 62.2812 183.816 62.2812C184.278 62.2812 184.653 62.6527 184.653 63.1196Z" fill="white"/>
<path d="M19.0797 43.8891C19.5209 44.025 19.7706 44.4939 19.6346 44.9355C19.4985 45.3771 19.0282 45.6242 18.5871 45.4883C18.1459 45.3524 17.8962 44.8835 18.0322 44.4419C18.1683 44.0003 18.6385 43.7532 19.0797 43.8891Z" fill="white"/>
</g>
<g clip-path="url(#clip4)">
<path d="M360.322 16.5526C360.643 16.22 361.17 16.2121 361.503 16.5325C361.836 16.853 361.848 17.3804 361.528 17.713C361.208 18.0456 360.677 18.0573 360.344 17.7368C360.011 17.4164 360.002 16.8853 360.322 16.5526Z" fill="white"/>
<path d="M224.729 169.784C224.906 170.211 224.702 170.697 224.275 170.874C223.849 171.051 223.36 170.851 223.184 170.425C223.007 169.998 223.209 169.507 223.635 169.33C224.062 169.153 224.553 169.358 224.729 169.784Z" fill="white"/>
<path d="M244.093 111.989C242.808 111.176 241.098 111.564 240.287 112.847C239.473 114.134 239.859 115.841 241.145 116.653C242.431 117.467 244.138 117.083 244.951 115.796C245.762 114.513 245.38 112.802 244.093 111.989ZM240.263 118.048C238.209 116.75 237.596 114.021 238.895 111.967C240.193 109.913 242.919 109.3 244.972 110.599C247.026 111.897 247.642 114.622 246.344 116.676C245.045 118.73 242.317 119.347 240.263 118.048Z" fill="white"/>
<path d="M317.3 57.6415C317.122 57.5289 316.987 57.3491 316.936 57.1287C316.836 56.683 317.114 56.2435 317.56 56.142L321.536 55.2474C321.982 55.1459 322.422 55.4243 322.521 55.8699C322.623 56.3108 322.342 56.7549 321.9 56.8522L317.92 57.7509C317.699 57.7996 317.479 57.7543 317.3 57.6415Z" fill="white"/>
<path d="M319.738 59.1825C319.56 59.07 319.424 58.8902 319.373 58.6694L318.478 54.6888C318.376 54.2477 318.657 53.8036 319.099 53.7066C319.544 53.6048 319.985 53.8835 320.083 54.3289L320.982 58.3053C321.08 58.7507 320.803 59.1902 320.358 59.292C320.137 59.3406 319.916 59.2951 319.738 59.1825Z" fill="white"/>
<path d="M240.339 87.1735L236.892 84.9944C236.507 84.7513 236.391 84.2447 236.635 83.859C236.879 83.4733 237.386 83.3609 237.771 83.604L241.218 85.7832C241.602 86.0262 241.718 86.5327 241.474 86.9184C241.23 87.3041 240.723 87.4166 240.339 87.1735Z" fill="white"/>
<path d="M237.524 87.8107C237.139 87.5678 237.026 87.0567 237.27 86.671L239.447 83.2264C239.691 82.8407 240.201 82.7239 240.586 82.9668C240.97 83.21 241.084 83.721 240.84 84.1067L238.662 87.5513C238.418 87.937 237.908 88.0539 237.524 87.8107Z" fill="white"/>
<path d="M284.273 34.0816C284.026 34.4718 283.508 34.5902 283.117 34.3432C282.727 34.0964 282.611 33.5776 282.858 33.1874C283.105 32.7972 283.623 32.6791 284.013 32.9259C284.404 33.1729 284.519 33.6914 284.273 34.0816Z" fill="white"/>
<path d="M268.39 107.38C268.143 107.77 267.625 107.888 267.235 107.642C266.844 107.395 266.729 106.876 266.975 106.486C267.222 106.096 267.737 105.982 268.128 106.229C268.518 106.476 268.636 106.99 268.39 107.38Z" fill="white"/>
<path d="M214.755 106.254C214.509 106.644 213.993 106.758 213.603 106.511C213.212 106.264 213.094 105.75 213.341 105.36C213.588 104.97 214.105 104.852 214.496 105.098C214.886 105.345 215.002 105.864 214.755 106.254Z" fill="white"/>
<path d="M256.767 41.3637C256.52 41.7539 256.005 41.8678 255.615 41.621C255.224 41.374 255.106 40.8599 255.353 40.4698C255.602 40.0751 256.117 39.9613 256.508 40.2083C256.899 40.4551 257.017 40.9691 256.767 41.3637Z" fill="white"/>
<path d="M272.12 80.3036C271.874 80.6938 271.359 80.8075 270.968 80.5607C270.577 80.3137 270.459 79.7997 270.706 79.4095C270.953 79.0193 271.471 78.901 271.861 79.1479C272.252 79.3948 272.367 79.9134 272.12 80.3036Z" fill="white"/>
<path d="M290.465 83.4511C290.218 83.8413 289.7 83.9596 289.31 83.7126C288.919 83.4657 288.804 82.9472 289.05 82.5571C289.297 82.1669 289.815 82.0485 290.206 82.2954C290.596 82.5423 290.711 83.061 290.465 83.4511Z" fill="white"/>
<path d="M286.767 113.141C286.52 113.531 286.005 113.645 285.615 113.398C285.224 113.151 285.106 112.637 285.353 112.247C285.6 111.857 286.118 111.738 286.508 111.985C286.898 112.232 287.014 112.751 286.767 113.141Z" fill="white"/>
<path d="M293.921 134.884C294.128 134.926 294.318 135.046 294.442 135.24C294.694 135.616 294.589 136.131 294.209 136.378L290.805 138.627C290.426 138.875 289.915 138.77 289.664 138.393C289.414 138.012 289.518 137.502 289.898 137.25L293.302 135.006C293.492 134.877 293.714 134.841 293.921 134.884Z" fill="white"/>
<path d="M219.854 20.7132C219.959 20.5308 220.133 20.3882 220.356 20.3312C220.793 20.2115 221.248 20.4742 221.363 20.9122L222.421 24.8527C222.535 25.2907 222.275 25.7419 221.838 25.8616C221.397 25.9782 220.947 25.7182 220.827 25.278L219.774 21.3397C219.712 21.1183 219.748 20.8961 219.854 20.7132Z" fill="white"/>
<path d="M291.096 134.305C291.302 134.347 291.493 134.468 291.618 134.661L293.864 138.062C294.115 138.444 294.01 138.953 293.63 139.206C293.251 139.453 292.74 139.349 292.489 138.972L290.243 135.566C289.992 135.189 290.097 134.675 290.476 134.427C290.667 134.298 290.89 134.263 291.096 134.305Z" fill="white"/>
<path d="M218.412 23.2108C218.517 23.0284 218.691 22.8858 218.914 22.8284L222.851 21.7718C223.293 21.6548 223.743 21.9148 223.862 22.3555C223.977 22.7931 223.717 23.2448 223.28 23.364L219.338 24.4184C218.902 24.5376 218.447 24.275 218.332 23.8373C218.27 23.6159 218.307 23.3932 218.412 23.2108Z" fill="white"/>
<path d="M211.281 83.9482C211.2 83.4936 211.503 83.0574 211.958 82.977C212.414 82.8965 212.848 83.2023 212.928 83.6568C213.009 84.1114 212.705 84.5477 212.25 84.6281C211.795 84.7086 211.361 84.4027 211.281 83.9482Z" fill="white"/>
<path d="M209.413 145.724C209.163 146.112 208.645 146.227 208.256 145.977C207.867 145.727 207.756 145.207 208.006 144.819C208.256 144.431 208.772 144.321 209.16 144.571C209.549 144.821 209.663 145.336 209.413 145.724Z" fill="white"/>
<path d="M341.08 152.673C341.427 152.978 341.462 153.508 341.157 153.855C340.852 154.202 340.322 154.235 339.975 153.93C339.629 153.625 339.597 153.098 339.902 152.751C340.207 152.404 340.734 152.368 341.08 152.673Z" fill="white"/>
<path d="M333.991 1.59362C333.659 1.27351 333.647 0.742355 333.967 0.409406C334.288 0.0764564 334.819 0.0678542 335.151 0.387972C335.484 0.708091 335.492 1.2355 335.171 1.56845C334.851 1.9014 334.324 1.91374 333.991 1.59362Z" fill="white"/>
<path d="M217.022 130.802C216.773 131.19 216.254 131.304 215.865 131.055C215.477 130.805 215.365 130.285 215.615 129.897C215.865 129.509 216.384 129.394 216.772 129.644C217.161 129.894 217.272 130.414 217.022 130.802Z" fill="white"/>
<path d="M327.461 142.922C327.808 143.227 327.843 143.757 327.538 144.104C327.233 144.451 326.703 144.483 326.356 144.178C326.01 143.874 325.974 143.343 326.279 142.996C326.584 142.65 327.115 142.617 327.461 142.922Z" fill="white"/>
<path d="M347.16 11.9449C346.827 11.6248 346.816 11.0937 347.136 10.7608C347.456 10.4278 347.988 10.4192 348.32 10.7393C348.653 11.0594 348.665 11.5905 348.344 11.9235C348.024 12.2564 347.492 12.265 347.16 11.9449Z" fill="white"/>
<path d="M234.219 159.565C234.645 159.388 235.137 159.59 235.313 160.016C235.49 160.443 235.286 160.933 234.859 161.11C234.433 161.287 233.942 161.085 233.765 160.658C233.588 160.232 233.792 159.741 234.219 159.565Z" fill="white"/>
<path d="M268.157 185.724C268.25 185.272 268.692 184.978 269.145 185.071C269.598 185.163 269.889 185.607 269.797 186.06C269.704 186.512 269.261 186.806 268.809 186.713C268.356 186.62 268.065 186.176 268.157 185.724Z" fill="white"/>
<path d="M314.301 169.966C314.648 170.271 314.683 170.801 314.378 171.148C314.073 171.494 313.543 171.527 313.196 171.222C312.85 170.917 312.814 170.387 313.119 170.04C313.425 169.693 313.955 169.661 314.301 169.966Z" fill="white"/>
<path d="M258.314 169.04C258.406 168.588 258.849 168.294 259.301 168.387C259.754 168.48 260.045 168.924 259.953 169.376C259.86 169.828 259.418 170.122 258.965 170.03C258.512 169.937 258.221 169.493 258.314 169.04Z" fill="white"/>
<path d="M333.67 169.701C334.017 170.006 334.053 170.536 333.747 170.883C333.442 171.23 332.912 171.263 332.565 170.958C332.219 170.653 332.183 170.123 332.488 169.776C332.794 169.429 333.324 169.396 333.67 169.701Z" fill="white"/>
<path d="M280.165 140.716C280.258 140.263 280.7 139.969 281.153 140.062C281.605 140.155 281.897 140.599 281.804 141.051C281.712 141.504 281.27 141.792 280.817 141.7C280.365 141.607 280.072 141.168 280.165 140.716Z" fill="white"/>
<path d="M221.039 35.6076C220.639 35.3768 220.5 34.864 220.731 34.4639C220.963 34.0637 221.476 33.9277 221.876 34.1585C222.276 34.3894 222.41 34.8994 222.179 35.2996C221.948 35.6998 221.439 35.8384 221.039 35.6076Z" fill="white"/>
<path d="M221.73 30.9335L225.728 31.7351C226.175 31.8246 226.463 32.2613 226.375 32.7035C226.285 33.1509 225.85 33.4426 225.404 33.3531L221.405 32.5515C220.958 32.462 220.67 32.0254 220.76 31.578C220.849 31.1358 221.283 30.8439 221.73 30.9335Z" fill="white"/>
<path d="M224.129 29.3365C224.576 29.426 224.865 29.8574 224.775 30.3048L223.973 34.3056C223.884 34.753 223.451 35.0396 223.004 34.95C222.558 34.8606 222.269 34.4292 222.358 33.9818L223.16 29.9811C223.25 29.5336 223.683 29.247 224.129 29.3365Z" fill="white"/>
<path d="M395.652 140.53C395.441 140.53 395.23 140.451 395.07 140.291L392.185 137.405C391.864 137.086 391.864 136.561 392.185 136.243C392.508 135.919 393.029 135.919 393.351 136.243L396.235 139.124C396.556 139.448 396.556 139.968 396.235 140.291C396.074 140.451 395.863 140.53 395.652 140.53Z" fill="white"/>
<path d="M392.768 140.53C392.557 140.53 392.347 140.451 392.185 140.291C391.864 139.968 391.864 139.448 392.185 139.124L395.07 136.243C395.392 135.919 395.913 135.919 396.235 136.243C396.556 136.561 396.556 137.086 396.235 137.405L393.351 140.291C393.19 140.451 392.979 140.53 392.768 140.53Z" fill="white"/>
<path d="M229.339 66.0652C229.429 65.6126 229.87 65.3221 230.323 65.4129C230.775 65.5036 231.07 65.9413 230.979 66.3939C230.887 66.8517 230.447 67.1423 229.994 67.0516C229.541 66.9608 229.247 66.523 229.339 66.0652Z" fill="white"/>
<path d="M274.632 25.2511C274.421 25.2511 274.21 25.1715 274.049 25.0124L271.165 22.1259C270.844 21.8075 270.844 21.2822 271.165 20.9638C271.487 20.6402 272.008 20.6402 272.33 20.9638L275.214 23.845C275.536 24.1687 275.536 24.6887 275.214 25.0124C275.054 25.1715 274.842 25.2511 274.632 25.2511Z" fill="white"/>
<path d="M271.748 25.2511C271.537 25.2511 271.326 25.1715 271.165 25.0124C270.844 24.6887 270.844 24.1687 271.165 23.845L274.049 20.9638C274.371 20.6402 274.892 20.6402 275.214 20.9638C275.536 21.2822 275.536 21.8075 275.214 22.1259L272.33 25.0124C272.17 25.1715 271.958 25.2511 271.748 25.2511Z" fill="white"/>
<path d="M266.145 2.83311C266.145 3.29474 265.771 3.6714 265.309 3.6714C264.847 3.6714 264.473 3.29474 264.473 2.83311C264.473 2.37148 264.847 2 265.309 2C265.771 2 266.145 2.37148 266.145 2.83311Z" fill="white"/>
<path d="M233.673 3.67132C233.673 4.13294 233.299 4.5097 232.837 4.5097C232.375 4.5097 232 4.13294 232 3.67132C232 3.2097 232.375 2.83304 232.837 2.83304C233.299 2.83304 233.673 3.2097 233.673 3.67132Z" fill="white"/>
<path d="M242.653 31.1197C242.653 31.5813 242.278 31.9527 241.816 31.9527C241.354 31.9527 240.98 31.5813 240.98 31.1197C240.98 30.6527 241.354 30.2812 241.816 30.2812C242.278 30.2812 242.653 30.6527 242.653 31.1197Z" fill="white"/>
<path d="M293.588 30.2812C293.588 30.7428 293.213 31.1196 292.751 31.1196C292.289 31.1196 291.914 30.7428 291.914 30.2812C291.914 29.8196 292.289 29.4429 292.751 29.4429C293.213 29.4429 293.588 29.8196 293.588 30.2812Z" fill="white"/>
<path d="M397.345 65.5646L396.145 69.4621C396.011 69.8971 395.547 70.1401 395.116 70.0074C394.68 69.873 394.433 69.4113 394.567 68.9763L395.768 65.0788C395.902 64.6433 396.366 64.4008 396.802 64.5351C397.233 64.6679 397.479 65.1291 397.345 65.5646Z" fill="white"/>
<path d="M398.692 68.1129C398.558 68.5484 398.1 68.7925 397.664 68.6581L393.764 67.4568C393.328 67.3225 393.087 66.8629 393.221 66.4274C393.355 65.9925 393.813 65.7484 394.249 65.8828L398.149 67.084C398.585 67.2184 398.826 67.678 398.692 68.1129Z" fill="white"/>
<path d="M373.309 59.5636C373.515 59.605 373.706 59.7244 373.831 59.9173C374.085 60.2928 373.981 60.8078 373.603 61.0567L370.208 63.3201C369.83 63.5689 369.319 63.4665 369.066 63.0911C368.815 62.7105 368.917 62.2007 369.296 61.9465L372.69 59.6884C372.88 59.5587 373.102 59.5221 373.309 59.5636Z" fill="white"/>
<path d="M370.481 58.9968C370.688 59.0382 370.878 59.1576 371.004 59.3506L373.265 62.7423C373.517 63.1229 373.415 63.6327 373.036 63.8868C372.658 64.1357 372.147 64.0332 371.894 63.6579L369.633 60.2609C369.381 59.8856 369.484 59.3705 369.862 59.1216C370.052 58.9919 370.275 58.9554 370.481 58.9968Z" fill="white"/>
<path d="M377.519 119.654C377.61 119.202 378.051 118.906 378.505 118.997C378.958 119.087 379.251 119.53 379.16 119.983C379.069 120.436 378.629 120.726 378.176 120.635C377.723 120.544 377.429 120.107 377.519 119.654Z" fill="white"/>
<path d="M317.758 112.636C317.849 112.184 318.29 111.888 318.743 111.979C319.196 112.07 319.489 112.513 319.398 112.965C319.308 113.418 318.866 113.714 318.413 113.623C317.96 113.532 317.667 113.089 317.758 112.636Z" fill="white"/>
<path d="M347.758 110.511C347.849 110.059 348.29 109.763 348.743 109.854C349.196 109.945 349.49 110.388 349.399 110.84C349.308 111.293 348.867 111.589 348.414 111.498C347.961 111.407 347.668 110.964 347.758 110.511Z" fill="white"/>
<path d="M337.845 93.8695C337.935 93.4169 338.377 93.1211 338.83 93.2119C339.283 93.3028 339.576 93.7458 339.485 94.1984C339.395 94.651 338.953 94.9467 338.5 94.8559C338.047 94.7651 337.754 94.3221 337.845 93.8695Z" fill="white"/>
<path d="M359.577 65.4533C359.668 65.0007 360.109 64.7049 360.562 64.7957C361.015 64.8865 361.308 65.3295 361.218 65.7821C361.127 66.2347 360.687 66.5253 360.234 66.4344C359.78 66.3436 359.486 65.9059 359.577 65.4533Z" fill="white"/>
</g>
</g>
<defs>
<clipPath id="clip0">
<rect width="400" height="400" fill="white"/>
</clipPath>
<clipPath id="clip1">
<rect width="400" height="400" fill="white" transform="translate(200 200)"/>
</clipPath>
<clipPath id="clip2">
<rect width="400" height="400" fill="white" transform="translate(-200 200)"/>
</clipPath>
<clipPath id="clip3">
<rect width="400" height="400" fill="white" transform="translate(-200 -200)"/>
</clipPath>
<clipPath id="clip4">
<rect width="400" height="400" fill="white" transform="translate(200 -200)"/>
</clipPath>
</defs>
</svg>
