<svg xmlns="http://www.w3.org/2000/svg" xmlns:xlink="http://www.w3.org/1999/xlink" viewBox="0 0 1000 1000" height="1000" width="1000">
<defs>
<rect id="l" width="3" height="3" fill="rgba(255, 255, 255, .5)"/>
<rect id="m" width="2" height="2" fill="rgba(255, 255, 255, .5)"/>
<rect id="s" width="1" height="1" fill="rgba(255, 255, 255, .5)"/>
<radialGradient id="bg" cx="500" cy="800" r="500" gradientUnits="userSpaceOnUse">
<stop offset="0%" stop-color="#801384" />
<stop offset="100%" stop-color="#170926" />
</radialGradient>
</defs>
<rect width="100%" height="100%" fill="url(#bg)"/>
<use href="#l" x="613" y="745" />
<use href="#l" x="677" y="345" />
<use href="#l" x="107" y="580" />
<use href="#l" x="551" y="146" />
<use href="#l" x="185" y="251" />
<use href="#l" x="401" y="806" />
<use href="#l" x="202" y="434" />
<use href="#l" x="898" y="674" />
<use href="#l" x="139" y="437" />
<use href="#l" x="50" y="415" />
<use href="#l" x="760" y="91" />
<use href="#l" x="410" y="704" />
<use href="#l" x="356" y="924" />
<use href="#l" x="818" y="152" />
<use href="#l" x="806" y="744" />
<use href="#l" x="646" y="38" />
<use href="#l" x="862" y="529" />
<use href="#l" x="429" y="227" />
<use href="#l" x="921" y="103" />
<use href="#l" x="649" y="544" />
<use href="#l" x="885" y="928" />
<use href="#l" x="858" y="25" />
<use href="#l" x="939" y="227" />
<use href="#l" x="89" y="62" />
<use href="#l" x="526" y="908" />
<use href="#l" x="789" y="297" />
<use href="#l" x="912" y="898" />
<use href="#l" x="415" y="413" />
<use href="#l" x="218" y="872" />
<use href="#l" x="19" y="510" />
<use href="#l" x="195" y="613" />
<use href="#l" x="751" y="669" />
<use href="#l" x="33" y="591" />
<use href="#l" x="808" y="389" />
<use href="#l" x="10" y="422" />
<use href="#l" x="535" y="943" />
<use href="#l" x="558" y="987" />
<use href="#l" x="443" y="425" />
<use href="#l" x="220" y="226" />
<use href="#l" x="987" y="899" />
<use href="#l" x="707" y="372" />
<use href="#l" x="56" y="741" />
<use href="#l" x="4" y="967" />
<use href="#l" x="787" y="687" />
<use href="#l" x="601" y="67" />
<use href="#l" x="840" y="49" />
<use href="#l" x="577" y="775" />
<use href="#l" x="115" y="181" />
<use href="#l" x="582" y="610" />
<use href="#l" x="587" y="996" />
<use href="#l" x="13" y="884" />
<use href="#l" x="635" y="545" />
<use href="#l" x="645" y="727" />
<use href="#l" x="676" y="160" />
<use href="#l" x="693" y="377" />
<use href="#l" x="760" y="36" />
<use href="#l" x="159" y="449" />
<use href="#l" x="774" y="533" />
<use href="#l" x="442" y="904" />
<use href="#l" x="822" y="793" />
<use href="#l" x="292" y="511" />
<use href="#l" x="513" y="951" />
<use href="#l" x="46" y="365" />
<use href="#l" x="686" y="765" />
<use href="#l" x="941" y="242" />
<use href="#l" x="564" y="678" />
<use href="#l" x="460" y="560" />
<use href="#l" x="678" y="911" />
<use href="#l" x="331" y="272" />
<use href="#l" x="74" y="760" />
<use href="#l" x="641" y="315" />
<use href="#l" x="742" y="7" />
<use href="#l" x="251" y="316" />
<use href="#l" x="647" y="460" />
<use href="#l" x="122" y="729" />
<use href="#l" x="27" y="545" />
<use href="#l" x="347" y="716" />
<use href="#l" x="744" y="328" />
<use href="#l" x="745" y="415" />
<use href="#l" x="433" y="18" />
<use href="#l" x="210" y="140" />
<use href="#l" x="198" y="835" />
<use href="#l" x="214" y="392" />
<use href="#l" x="480" y="99" />
<use href="#l" x="43" y="406" />
<use href="#l" x="357" y="446" />
<use href="#l" x="742" y="385" />
<use href="#l" x="849" y="506" />
<use href="#l" x="459" y="895" />
<use href="#l" x="582" y="626" />
<use href="#l" x="736" y="591" />
<use href="#l" x="25" y="132" />
<use href="#l" x="889" y="152" />
<use href="#l" x="409" y="245" />
<use href="#l" x="162" y="445" />
<use href="#l" x="942" y="60" />
<use href="#l" x="89" y="267" />
<use href="#l" x="830" y="653" />
<use href="#l" x="634" y="970" />
<use href="#l" x="628" y="770" />
<use href="#l" x="813" y="611" />
<use href="#l" x="935" y="484" />
<use href="#l" x="963" y="969" />
<use href="#l" x="226" y="788" />
<use href="#l" x="388" y="161" />
<use href="#l" x="336" y="272" />
<use href="#l" x="547" y="120" />
<use href="#l" x="388" y="854" />
<use href="#l" x="643" y="800" />
<use href="#l" x="1" y="309" />
<use href="#l" x="730" y="636" />
<use href="#l" x="508" y="337" />
<use href="#l" x="74" y="485" />
<use href="#l" x="750" y="235" />
<use href="#l" x="664" y="68" />
<use href="#l" x="51" y="549" />
<use href="#l" x="373" y="556" />
<use href="#l" x="30" y="158" />
<use href="#l" x="977" y="703" />
<use href="#l" x="531" y="443" />
<use href="#l" x="835" y="795" />
<use href="#l" x="673" y="157" />
<use href="#l" x="636" y="437" />
<use href="#l" x="994" y="690" />
<use href="#l" x="43" y="935" />
<use href="#l" x="284" y="734" />
<use href="#l" x="578" y="138" />
<use href="#l" x="419" y="982" />
<use href="#l" x="40" y="509" />
<use href="#l" x="521" y="41" />
<use href="#l" x="198" y="233" />
<use href="#l" x="937" y="314" />
<use href="#l" x="40" y="625" />
<use href="#l" x="948" y="546" />
<use href="#l" x="693" y="807" />
<use href="#l" x="550" y="883" />
<use href="#l" x="406" y="2" />
<use href="#l" x="806" y="164" />
<use href="#l" x="104" y="740" />
<use href="#l" x="302" y="338" />
<use href="#l" x="73" y="892" />
<use href="#l" x="435" y="128" />
<use href="#l" x="857" y="828" />
<use href="#l" x="405" y="90" />
<use href="#l" x="554" y="582" />
<use href="#l" x="70" y="648" />
<use href="#l" x="512" y="567" />
<use href="#l" x="998" y="26" />
<use href="#l" x="284" y="813" />
<use href="#l" x="214" y="928" />
<use href="#l" x="14" y="660" />
<use href="#l" x="143" y="223" />
<use href="#l" x="94" y="349" />
<use href="#l" x="1" y="677" />
<use href="#l" x="544" y="932" />
<use href="#l" x="50" y="428" />
<use href="#l" x="529" y="127" />
<use href="#l" x="592" y="211" />
<use href="#l" x="187" y="697" />
<use href="#l" x="929" y="316" />
<use href="#l" x="964" y="951" />
<use href="#l" x="41" y="853" />
<use href="#l" x="616" y="473" />
<use href="#l" x="376" y="909" />
<use href="#l" x="40" y="319" />
<use href="#l" x="983" y="552" />
<use href="#l" x="263" y="668" />
<use href="#l" x="846" y="890" />
<use href="#l" x="391" y="809" />
<use href="#l" x="182" y="87" />
<use href="#l" x="973" y="490" />
<use href="#l" x="392" y="752" />
<use href="#l" x="203" y="624" />
<use href="#l" x="826" y="348" />
<use href="#l" x="522" y="428" />
<use href="#l" x="270" y="562" />
<use href="#l" x="812" y="464" />
<use href="#l" x="272" y="384" />
<use href="#l" x="236" y="970" />
<use href="#l" x="573" y="744" />
<use href="#l" x="356" y="404" />
<use href="#m" x="500" y="676" />
<use href="#m" x="524" y="645" />
<use href="#m" x="738" y="723" />
<use href="#m" x="427" y="759" />
<use href="#m" x="530" y="57" />
<use href="#m" x="728" y="73" />
<use href="#m" x="321" y="407" />
<use href="#m" x="474" y="32" />
<use href="#m" x="149" y="382" />
<use href="#m" x="251" y="566" />
<use href="#m" x="412" y="747" />
<use href="#m" x="734" y="423" />
<use href="#m" x="385" y="364" />
<use href="#m" x="550" y="318" />
<use href="#m" x="471" y="782" />
<use href="#m" x="422" y="600" />
<use href="#m" x="983" y="610" />
<use href="#m" x="118" y="653" />
<use href="#m" x="820" y="612" />
<use href="#m" x="628" y="127" />
<use href="#m" x="576" y="465" />
<use href="#m" x="154" y="979" />
<use href="#m" x="440" y="306" />
<use href="#m" x="23" y="557" />
<use href="#m" x="741" y="204" />
<use href="#m" x="534" y="419" />
<use href="#m" x="869" y="722" />
<use href="#m" x="621" y="327" />
<use href="#m" x="157" y="234" />
<use href="#m" x="66" y="848" />
<use href="#m" x="946" y="964" />
<use href="#m" x="158" y="668" />
<use href="#m" x="218" y="606" />
<use href="#m" x="17" y="153" />
<use href="#m" x="689" y="699" />
<use href="#m" x="466" y="725" />
<use href="#m" x="233" y="79" />
<use href="#m" x="787" y="719" />
<use href="#m" x="12" y="546" />
<use href="#m" x="93" y="210" />
<use href="#m" x="880" y="856" />
<use href="#m" x="865" y="812" />
<use href="#m" x="848" y="248" />
<use href="#m" x="337" y="535" />
<use href="#m" x="517" y="325" />
<use href="#m" x="698" y="528" />
<use href="#m" x="589" y="444" />
<use href="#m" x="752" y="468" />
<use href="#m" x="845" y="395" />
<use href="#m" x="154" y="102" />
<use href="#m" x="8" y="397" />
<use href="#m" x="986" y="583" />
<use href="#m" x="126" y="87" />
<use href="#m" x="591" y="91" />
<use href="#m" x="958" y="788" />
<use href="#m" x="187" y="849" />
<use href="#m" x="418" y="499" />
<use href="#m" x="340" y="171" />
<use href="#m" x="202" y="44" />
<use href="#m" x="290" y="57" />
<use href="#m" x="389" y="491" />
<use href="#m" x="245" y="388" />
<use href="#m" x="463" y="896" />
<use href="#m" x="927" y="320" />
<use href="#m" x="886" y="147" />
<use href="#m" x="97" y="975" />
<use href="#m" x="698" y="688" />
<use href="#m" x="707" y="437" />
<use href="#m" x="576" y="91" />
<use href="#m" x="220" y="668" />
<use href="#m" x="212" y="200" />
<use href="#m" x="754" y="695" />
<use href="#m" x="26" y="25" />
<use href="#m" x="155" y="636" />
<use href="#m" x="528" y="503" />
<use href="#m" x="343" y="353" />
<use href="#m" x="619" y="839" />
<use href="#m" x="210" y="863" />
<use href="#m" x="454" y="188" />
<use href="#m" x="572" y="876" />
<use href="#m" x="390" y="412" />
<use href="#m" x="272" y="625" />
<use href="#m" x="557" y="799" />
<use href="#m" x="978" y="951" />
<use href="#m" x="174" y="420" />
<use href="#m" x="115" y="254" />
<use href="#m" x="380" y="1" />
<use href="#m" x="995" y="954" />
<use href="#m" x="593" y="277" />
<use href="#m" x="122" y="567" />
<use href="#m" x="330" y="182" />
<use href="#m" x="590" y="383" />
<use href="#m" x="12" y="973" />
<use href="#m" x="9" y="407" />
<use href="#m" x="125" y="738" />
<use href="#m" x="164" y="316" />
<use href="#m" x="159" y="774" />
<use href="#m" x="330" y="504" />
<use href="#m" x="570" y="710" />
<use href="#m" x="672" y="404" />
<use href="#m" x="948" y="98" />
<use href="#m" x="655" y="399" />
<use href="#m" x="158" y="1000" />
<use href="#m" x="713" y="629" />
<use href="#m" x="342" y="901" />
<use href="#m" x="710" y="833" />
<use href="#m" x="25" y="75" />
<use href="#m" x="89" y="641" />
<use href="#m" x="473" y="828" />
<use href="#m" x="576" y="901" />
<use href="#m" x="72" y="676" />
<use href="#m" x="511" y="740" />
<use href="#m" x="330" y="993" />
<use href="#m" x="457" y="446" />
<use href="#m" x="790" y="82" />
<use href="#m" x="491" y="572" />
<use href="#m" x="523" y="358" />
<use href="#m" x="383" y="505" />
<use href="#m" x="835" y="161" />
<use href="#m" x="301" y="294" />
<use href="#m" x="650" y="680" />
<use href="#m" x="178" y="612" />
<use href="#m" x="796" y="837" />
<use href="#m" x="14" y="611" />
<use href="#m" x="539" y="125" />
<use href="#m" x="785" y="213" />
<use href="#m" x="754" y="971" />
<use href="#m" x="210" y="224" />
<use href="#m" x="285" y="37" />
<use href="#m" x="391" y="296" />
<use href="#m" x="723" y="414" />
<use href="#m" x="85" y="982" />
<use href="#m" x="522" y="826" />
<use href="#m" x="595" y="313" />
<use href="#m" x="201" y="38" />
<use href="#m" x="268" y="886" />
<use href="#m" x="27" y="93" />
<use href="#m" x="6" y="1" />
<use href="#m" x="82" y="384" />
<use href="#m" x="381" y="141" />
<use href="#m" x="578" y="384" />
<use href="#m" x="186" y="539" />
<use href="#m" x="314" y="319" />
<use href="#m" x="865" y="422" />
<use href="#m" x="444" y="481" />
<use href="#m" x="693" y="203" />
<use href="#m" x="313" y="540" />
<use href="#m" x="971" y="78" />
<use href="#m" x="658" y="478" />
<use href="#m" x="35" y="45" />
<use href="#m" x="954" y="595" />
<use href="#m" x="145" y="807" />
<use href="#m" x="674" y="169" />
<use href="#m" x="529" y="22" />
<use href="#m" x="740" y="943" />
<use href="#m" x="546" y="430" />
<use href="#m" x="93" y="161" />
<use href="#m" x="545" y="982" />
<use href="#m" x="499" y="479" />
<use href="#m" x="723" y="197" />
<use href="#m" x="370" y="353" />
<use href="#m" x="686" y="713" />
<use href="#m" x="246" y="974" />
<use href="#m" x="891" y="922" />
<use href="#m" x="613" y="324" />
<use href="#m" x="862" y="825" />
<use href="#m" x="2" y="822" />
<use href="#m" x="608" y="84" />
<use href="#m" x="532" y="209" />
<use href="#m" x="140" y="416" />
<use href="#m" x="265" y="745" />
<use href="#m" x="714" y="253" />
<use href="#m" x="645" y="559" />
<use href="#m" x="940" y="33" />
<use href="#m" x="448" y="574" />
<use href="#m" x="828" y="220" />
<use href="#m" x="711" y="243" />
<use href="#m" x="310" y="944" />
<use href="#m" x="58" y="667" />
<use href="#m" x="911" y="539" />
<use href="#m" x="214" y="3" />
<use href="#m" x="170" y="927" />
<use href="#m" x="267" y="847" />
<use href="#m" x="802" y="776" />
<use href="#m" x="287" y="664" />
<use href="#m" x="710" y="166" />
<use href="#m" x="854" y="67" />
<use href="#s" x="335" y="315" />
<use href="#s" x="678" y="100" />
<use href="#s" x="687" y="641" />
<use href="#s" x="38" y="476" />
<use href="#s" x="794" y="713" />
<use href="#s" x="330" y="988" />
<use href="#s" x="454" y="87" />
<use href="#s" x="504" y="868" />
<use href="#s" x="681" y="583" />
<use href="#s" x="124" y="91" />
<use href="#s" x="718" y="760" />
<use href="#s" x="335" y="720" />
<use href="#s" x="480" y="37" />
<use href="#s" x="384" y="881" />
<use href="#s" x="79" y="17" />
<use href="#s" x="916" y="819" />
<use href="#s" x="703" y="663" />
<use href="#s" x="761" y="330" />
<use href="#s" x="525" y="931" />
<use href="#s" x="600" y="659" />
<use href="#s" x="196" y="425" />
<use href="#s" x="717" y="254" />
<use href="#s" x="768" y="554" />
<use href="#s" x="744" y="204" />
<use href="#s" x="292" y="909" />
<use href="#s" x="21" y="644" />
<use href="#s" x="546" y="660" />
<use href="#s" x="280" y="50" />
<use href="#s" x="937" y="621" />
<use href="#s" x="868" y="697" />
<use href="#s" x="846" y="739" />
<use href="#s" x="813" y="957" />
<use href="#s" x="800" y="698" />
<use href="#s" x="315" y="981" />
<use href="#s" x="526" y="509" />
<use href="#s" x="326" y="537" />
<use href="#s" x="33" y="243" />
<use href="#s" x="186" y="973" />
<use href="#s" x="55" y="147" />
<use href="#s" x="539" y="750" />
<use href="#s" x="960" y="197" />
<use href="#s" x="864" y="721" />
<use href="#s" x="430" y="602" />
<use href="#s" x="391" y="66" />
<use href="#s" x="784" y="340" />
<use href="#s" x="795" y="44" />
<use href="#s" x="452" y="876" />
<use href="#s" x="94" y="10" />
<use href="#s" x="590" y="743" />
<use href="#s" x="170" y="22" />
<use href="#s" x="226" y="782" />
<use href="#s" x="518" y="192" />
<use href="#s" x="350" y="420" />
<use href="#s" x="617" y="507" />
<use href="#s" x="212" y="799" />
<use href="#s" x="220" y="197" />
<use href="#s" x="713" y="198" />
<use href="#s" x="309" y="367" />
<use href="#s" x="607" y="802" />
<use href="#s" x="420" y="672" />
<use href="#s" x="147" y="639" />
<use href="#s" x="781" y="161" />
<use href="#s" x="974" y="937" />
<use href="#s" x="640" y="332" />
<use href="#s" x="924" y="911" />
<use href="#s" x="476" y="939" />
<use href="#s" x="325" y="807" />
<use href="#s" x="196" y="575" />
<use href="#s" x="572" y="481" />
<use href="#s" x="317" y="590" />
<use href="#s" x="93" y="867" />
<use href="#s" x="481" y="99" />
<use href="#s" x="679" y="584" />
<use href="#s" x="180" y="973" />
<use href="#s" x="645" y="16" />
<use href="#s" x="572" y="115" />
<use href="#s" x="858" y="680" />
<use href="#s" x="490" y="51" />
<use href="#s" x="139" y="305" />
<use href="#s" x="313" y="749" />
<use href="#s" x="932" y="413" />
<use href="#s" x="942" y="599" />
<use href="#s" x="915" y="841" />
<use href="#s" x="568" y="414" />
<use href="#s" x="310" y="836" />
<use href="#s" x="879" y="339" />
<use href="#s" x="718" y="602" />
<use href="#s" x="534" y="809" />
<use href="#s" x="484" y="595" />
<use href="#s" x="787" y="365" />
<use href="#s" x="444" y="114" />
<use href="#s" x="914" y="966" />
<use href="#s" x="36" y="27" />
<use href="#s" x="68" y="764" />
<use href="#s" x="221" y="120" />
<use href="#s" x="855" y="369" />
<use href="#s" x="901" y="192" />
<use href="#s" x="116" y="181" />
<use href="#s" x="918" y="822" />
<use href="#s" x="463" y="922" />
<use href="#s" x="107" y="127" />
<use href="#s" x="975" y="327" />
<use href="#s" x="411" y="155" />
<use href="#s" x="982" y="492" />
<use href="#s" x="256" y="500" />
<use href="#s" x="503" y="35" />
<use href="#s" x="856" y="746" />
<use href="#s" x="985" y="297" />
<use href="#s" x="725" y="383" />
<use href="#s" x="200" y="309" />
<use href="#s" x="933" y="221" />
<use href="#s" x="829" y="19" />
<use href="#s" x="831" y="547" />
<use href="#s" x="441" y="17" />
<use href="#s" x="706" y="826" />
<use href="#s" x="172" y="907" />
<use href="#s" x="806" y="908" />
<use href="#s" x="920" y="900" />
<use href="#s" x="299" y="38" />
<use href="#s" x="966" y="965" />
<use href="#s" x="142" y="359" />
<use href="#s" x="271" y="638" />
<use href="#s" x="839" y="172" />
<use href="#s" x="104" y="617" />
<use href="#s" x="264" y="683" />
<use href="#s" x="805" y="389" />
<use href="#s" x="429" y="620" />
<use href="#s" x="226" y="110" />
<use href="#s" x="234" y="844" />
<use href="#s" x="283" y="308" />
<use href="#s" x="994" y="102" />
<use href="#s" x="546" y="498" />
<use href="#s" x="75" y="710" />
<use href="#s" x="450" y="886" />
<use href="#s" x="618" y="843" />
<use href="#s" x="710" y="995" />
<use href="#s" x="803" y="188" />
<use href="#s" x="628" y="842" />
<use href="#s" x="77" y="68" />
<use href="#s" x="380" y="135" />
<use href="#s" x="865" y="361" />
<use href="#s" x="343" y="709" />
<use href="#s" x="49" y="691" />
<use href="#s" x="538" y="107" />
<use href="#s" x="796" y="449" />
<use href="#s" x="427" y="386" />
<use href="#s" x="914" y="635" />
<use href="#s" x="807" y="81" />
<use href="#s" x="973" y="262" />
<use href="#s" x="642" y="663" />
<use href="#s" x="13" y="743" />
<use href="#s" x="209" y="928" />
<use href="#s" x="112" y="30" />
<use href="#s" x="45" y="638" />
<use href="#s" x="716" y="868" />
<use href="#s" x="737" y="382" />
<use href="#s" x="219" y="557" />
<use href="#s" x="296" y="726" />
<use href="#s" x="860" y="843" />
<use href="#s" x="262" y="680" />
<use href="#s" x="841" y="793" />
<use href="#s" x="713" y="862" />
<use href="#s" x="81" y="703" />
<use href="#s" x="600" y="991" />
<use href="#s" x="705" y="609" />
<use href="#s" x="670" y="614" />
<use href="#s" x="296" y="506" />
<use href="#s" x="882" y="284" />
<use href="#s" x="822" y="439" />
<use href="#s" x="691" y="857" />
<use href="#s" x="849" y="771" />
</svg>
