<svg xmlns="http://www.w3.org/2000/svg" xmlns:xlink="http://www.w3.org/1999/xlink" viewBox="0 0 1000 1000" height="1000" width="1000">
<defs>
<radialGradient id="g" cx="500" cy="500" r="500" gradientUnits="userSpaceOnUse">
<stop offset="15%" stop-color="rgba(41, 101, 102, 0)" />
<stop offset="100%" stop-color="rgba(41, 101, 102, .4)" />
</radialGradient>
<radialGradient id="bg" cx="500" cy="500" r="500" gradientUnits="userSpaceOnUse">
<stop offset="0%" stop-color="#170926" />
<stop offset="100%" stop-color="#3a0c3c" />
</radialGradient>
</defs>
<rect width="100%" height="100%" fill="url(#bg)"/>
<circle cx="500" cy="500" r="100" fill="none" stroke-width="4" stroke="url(#g)" />
<circle cx="500" cy="500" r="120" fill="none" stroke-width="4" stroke="url(#g)" />
<circle cx="500" cy="500" r="150" fill="none" stroke-width="4" stroke="url(#g)" />
<circle cx="500" cy="500" r="200" fill="none" stroke-width="4" stroke="url(#g)" />
<circle cx="500" cy="500" r="300" fill="none" stroke-width="4" stroke="url(#g)" />
<circle cx="500" cy="500" r="490" fill="none" stroke-width="4" stroke="url(#g)" />
<circle cx="500" cy="500" r="700" fill="none" stroke-width="4" stroke="url(#g)" />
<line x1="500" y1="500" x2="0" y2="0" stroke-width="4" stroke="url(#g)" transform="rotate(0,500,500)" />
<line x1="500" y1="500" x2="0" y2="0" stroke-width="4" stroke="url(#g)" transform="rotate(24,500,500)" />
<line x1="500" y1="500" x2="0" y2="0" stroke-width="4" stroke="url(#g)" transform="rotate(48,500,500)" />
<line x1="500" y1="500" x2="0" y2="0" stroke-width="4" stroke="url(#g)" transform="rotate(72,500,500)" />
<line x1="500" y1="500" x2="0" y2="0" stroke-width="4" stroke="url(#g)" transform="rotate(96,500,500)" />
<line x1="500" y1="500" x2="0" y2="0" stroke-width="4" stroke="url(#g)" transform="rotate(120,500,500)" />
<line x1="500" y1="500" x2="0" y2="0" stroke-width="4" stroke="url(#g)" transform="rotate(144,500,500)" />
<line x1="500" y1="500" x2="0" y2="0" stroke-width="4" stroke="url(#g)" transform="rotate(168,500,500)" />
<line x1="500" y1="500" x2="0" y2="0" stroke-width="4" stroke="url(#g)" transform="rotate(192,500,500)" />
<line x1="500" y1="500" x2="0" y2="0" stroke-width="4" stroke="url(#g)" transform="rotate(216,500,500)" />
<line x1="500" y1="500" x2="0" y2="0" stroke-width="4" stroke="url(#g)" transform="rotate(240,500,500)" />
<line x1="500" y1="500" x2="0" y2="0" stroke-width="4" stroke="url(#g)" transform="rotate(264,500,500)" />
<line x1="500" y1="500" x2="0" y2="0" stroke-width="4" stroke="url(#g)" transform="rotate(288,500,500)" />
<line x1="500" y1="500" x2="0" y2="0" stroke-width="4" stroke="url(#g)" transform="rotate(312,500,500)" />
<line x1="500" y1="500" x2="0" y2="0" stroke-width="4" stroke="url(#g)" transform="rotate(336,500,500)" />
</svg>
